# xmcd
#
# Track frame offsets: 
#        150
#        19959
#        37462
#        61760
#        85923
#        101153
#        118124
#        138790
#        165249
#        189708
#        211127
#        229377
#        250472
#        272467
#
# Disc length: 3941 seconds
#
# Revision: 0
# Processed by: cddbd v1.4PL0 Copyright (c) Steve Scherf et al.
# Submitted via: ExactAudioCopy v0.90b3
#
DISCID=c60f630e
DTITLE=Glamour Puss - Electric and Alive
DYEAR=2001
DGENRE=Blues
TTITLE0=Hide Away
TTITLE1=Bar Room Preacher
TTITLE2=Blues Before Sunrise
TTITLE3=All She Left Me Was The Blues
TTITLE4=Easy Money Mumbo Jumbo
TTITLE5=Green Onions
TTITLE6=It's A Blues Thing
TTITLE7=Peter Gunn
TTITLE8=Zydeco Boogaloo
TTITLE9=Caline De Blues
TTITLE10=I'm Still Smokin'
TTITLE11=Coming Around
TTITLE12=You Were Wrong
TTITLE13=Matchbox
EXTD=
EXTT0=
EXTT1=
EXTT2=
EXTT3=
EXTT4=
EXTT5=
EXTT6=
EXTT7=
EXTT8=
EXTT9=
EXTT10=
EXTT11=
EXTT12=
EXTT13=
PLAYORDER=
